HIERARCHY
ROOT hip
{
  OFFSET 0 0 0
  CHANNELS 6 Xposition Yposition Zposition Zrotation Yrotation Xrotation
  JOINT abdomen
  {
    OFFSET 0 20.6881 -0.73152
    CHANNELS 3 Zrotation Xrotation Yrotation
    JOINT chest
    {
      OFFSET 0 11.7043 -0.48768
      CHANNELS 3 Zrotation Xrotation Yrotation
      JOINT neck
      {
        OFFSET 0 22.1894 -2.19456
        CHANNELS 3 Zrotation Xrotation Yrotation
        JOINT head
        {
          OFFSET -0.24384 7.07133 1.2192
          CHANNELS 3 Zrotation Xrotation Yrotation
          JOINT leftEye
          {
            OFFSET 4.14528 8.04674 8.04672
            CHANNELS 3 Zrotation Xrotation Yrotation
            End Site
            {
              OFFSET 1 0 0
            }
          }
          JOINT rightEye
          {
            OFFSET -3.6576 8.04674 8.04672
            CHANNELS 3 Zrotation Xrotation Yrotation
            End Site
            {
              OFFSET 1 0 0
            }
          }
        }
      }
      JOINT rCollar
      {
        OFFSET -2.68224 19.2634 -4.8768
        CHANNELS 3 Zrotation Xrotation Yrotation
        JOINT rShldr
        {
          OFFSET -8.77824 -1.95073 1.46304
          CHANNELS 3 Zrotation Xrotation Yrotation
          JOINT rForeArm
          {
            OFFSET -28.1742 -1.7115 0.48768
            CHANNELS 3 Zrotation Xrotation Yrotation
            JOINT rHand
            {
              OFFSET -22.5879 0.773209 7.07136
              CHANNELS 3 Zrotation Xrotation Yrotation
              JOINT rThumb1
              {
                OFFSET -1.2192 -0.487915 3.41376
                CHANNELS 3 Zrotation Xrotation Yrotation
                JOINT rThumb2
                {
                  OFFSET -3.37035 -0.52449 3.41376
                  CHANNELS 3 Zrotation Xrotation Yrotation
                  End Site
                  {
                    OFFSET -1.78271 -1.18214 1.43049
                  }
                }
              }
              JOINT rIndex1
              {
                OFFSET -7.75947 0.938293 5.60832
                CHANNELS 3 Zrotation Xrotation Yrotation
                JOINT rIndex2
                {
                  OFFSET -2.54057 -0.884171 1.56538
                  CHANNELS 3 Zrotation Xrotation Yrotation
                  End Site
                  {
                    OFFSET -1.62519 -0.234802 1.16502
                  }
                }
              }
              JOINT rMid1
              {
                OFFSET -8.24714 1.18213 3.41376
                CHANNELS 3 Zrotation Xrotation Yrotation
                JOINT rMid2
                {
                  OFFSET -3.10165 -0.590103 1.0647
                  CHANNELS 3 Zrotation Xrotation Yrotation
                  End Site
                  {
                    OFFSET -2.48547 -0.328903 0.83742
                  }
                }
              }
              JOINT rRing1
              {
                OFFSET -8.82822 0.546677 1.51678
                CHANNELS 3 Zrotation Xrotation Yrotation
                JOINT rRing2
                {
                  OFFSET -2.60934 -0.819778 -0.0198488
                  CHANNELS 3 Zrotation Xrotation Yrotation
                  End Site
                  {
                    OFFSET -2.33842 -0.294052 0.168128
                  }
                }
              }
              JOINT rPinky1
              {
                OFFSET -8.27202 -0.0477905 -0.4584
                CHANNELS 3 Zrotation Xrotation Yrotation
                JOINT rPinky2
                {
                  OFFSET -1.82734 -0.647385 -0.700984
                  CHANNELS 3 Zrotation Xrotation Yrotation
                  End Site
                  {
                    OFFSET -1.69225 -0.51767 -0.607171
                  }
                }
              }
            }
          }
        }
      }
      JOINT lCollar
      {
        OFFSET 2.68224 19.2634 -4.8768
        CHANNELS 3 Zrotation Xrotation Yrotation
        JOINT lShldr
        {
          OFFSET 8.77824 -1.95073 1.46304
          CHANNELS 3 Zrotation Xrotation Yrotation
          JOINT lForeArm
          {
            OFFSET 28.1742 -1.7115 0.48768
            CHANNELS 3 Zrotation Xrotation Yrotation
            JOINT lHand
            {
              OFFSET 22.5879 0.773209 7.07136
              CHANNELS 3 Zrotation Xrotation Yrotation
              JOINT lThumb1
              {
                OFFSET 1.2192 -0.487915 3.41376
                CHANNELS 3 Zrotation Xrotation Yrotation
                JOINT lThumb2
                {
                  OFFSET 3.37035 -0.52449 3.41376
                  CHANNELS 3 Zrotation Xrotation Yrotation
                  End Site
                  {
                    OFFSET 1.78271 -1.18214 1.43049
                  }
                }
              }
              JOINT lIndex1
              {
                OFFSET 7.75947 0.938293 5.60832
                CHANNELS 3 Zrotation Xrotation Yrotation
                JOINT lIndex2
                {
                  OFFSET 2.54057 -0.884171 1.56538
                  CHANNELS 3 Zrotation Xrotation Yrotation
                  End Site
                  {
                    OFFSET 1.62519 -0.234802 1.16502
                  }
                }
              }
              JOINT lMid1
              {
                OFFSET 8.24714 1.18213 3.41376
                CHANNELS 3 Zrotation Xrotation Yrotation
                JOINT lMid2
                {
                  OFFSET 3.10165 -0.590103 1.0647
                  CHANNELS 3 Zrotation Xrotation Yrotation
                  End Site
                  {
                    OFFSET 2.48547 -0.328903 0.83742
                  }
                }
              }
              JOINT lRing1
              {
                OFFSET 8.82822 0.546677 1.51678
                CHANNELS 3 Zrotation Xrotation Yrotation
                JOINT lRing2
                {
                  OFFSET 2.60934 -0.819778 -0.0198488
                  CHANNELS 3 Zrotation Xrotation Yrotation
                  End Site
                  {
                    OFFSET 2.33842 -0.294052 0.168128
                  }
                }
              }
              JOINT lPinky1
              {
                OFFSET 8.27202 -0.0477905 -0.4584
                CHANNELS 3 Zrotation Xrotation Yrotation
                JOINT lPinky2
                {
                  OFFSET 1.82734 -0.647385 -0.700984
                  CHANNELS 3 Zrotation Xrotation Yrotation
                  End Site
                  {
                    OFFSET 1.69225 -0.51767 -0.607171
                  }
                }
              }
            }
          }
        }
      }
    }
  }
  JOINT rButtock
  {
    OFFSET -8.77824 4.35084 1.2192
    CHANNELS 3 Zrotation Xrotation Yrotation
    JOINT rThigh
    {
      OFFSET 0 -1.70687 -2.19456
      CHANNELS 3 Zrotation Xrotation Yrotation
      JOINT rShin
      {
        OFFSET 0 -36.8199 0.73152
        CHANNELS 3 Zrotation Xrotation Yrotation
        JOINT rFoot
        {
          OFFSET 0.73152 -45.1104 -5.12064
          CHANNELS 3 Zrotation Xrotation Yrotation
          End Site
          {
            OFFSET -1.1221 -3.69964 12.103
          }
        }
      }
    }
  }
  JOINT lButtock
  {
    OFFSET 8.77824 4.35084 1.2192
    CHANNELS 3 Zrotation Xrotation Yrotation
    JOINT lThigh
    {
      OFFSET 0 -1.70687 -2.19456
      CHANNELS 3 Zrotation Xrotation Yrotation
      JOINT lShin
      {
        OFFSET 0 -36.8199 0.73152
        CHANNELS 3 Zrotation Xrotation Yrotation
        JOINT lFoot
        {
          OFFSET -0.73152 -45.1104 -5.12064
          CHANNELS 3 Zrotation Xrotation Yrotation
          End Site
          {
            OFFSET 1.1221 -3.69964 12.103
          }
        }
      }
    }
  }
}
MOTION
Frames:	5
Frame Time:	0.00833333
-202.135 82.1842 -89.286 0.0 0.0 0.0 -3.13123 0.0020855 -0.0845037 -0.863235 0.0181967 -0.149332 -1.93708e-14 0.0 -4.96961e-17 -5.65325e-14 3.18055e-15 -1.49089e-16 -0.0 0.0 0.0 -0.0 0.0 0.0 -9.34432e-15 3.35837e-17 2.98177e-16 -1.93716e-13 7.33018e-16 0.0 -3.36185e-12 1.05157e-12 0.0 -3.87264e-11 -8.34796e-13 -1.33583e-13 -9.1312e-11 4.69665e-13 -2.51264e-13 -1.57711e-10 8.14222e-13 -4.39712e-13 -9.13066e-11 4.68734e-13 -2.57625e-13 7.73091 5.47488 0.417314 -9.13131e-11 4.69529e-13 -2.44903e-13 2.90554 0.965183 0.102902 -9.13067e-11 4.69927e-13 -2.49674e-13 10.2786 0.731801 0.0259123 -9.13187e-11 4.71517e-13 -2.38542e-13 2.22167 -0.733487 -0.20892 -9.54088e-15 4.0184e-17 -9.93923e-17 -1.96806e-13 1.1865e-15 -1.59028e-15 -3.39962e-12 -9.71461e-13 6.36111e-14 -3.86926e-11 1.2029e-12 -1.7175e-13 -9.13175e-11 4.99421e-13 -2.44903e-13 -1.57691e-10 8.68291e-13 -4.14267e-13 -9.13229e-11 4.98552e-13 -2.38542e-13 -7.73091 5.47488 -0.417314 -9.13177e-11 4.99148e-13 -2.41722e-13 -2.90554 0.965183 -0.102902 -9.13251e-11 4.98751e-13 -2.48083e-13 -10.2786 0.731801 -0.0259123 -9.13096e-11 5.02528e-13 -2.54444e-13 -2.22167 -0.733487 0.20892 -2.03217e-16 0.0 -3.88251e-19 -1.91839 -1.93503 0.014618 -0.00850352 -2.07867 -0.0697867 -0.459076 4.0001 0.13252 2.03217e-16 0.0 3.88251e-19 -2.83783 -9.3263 0.322324 -0.00902746 11.308 -0.235104 0.526927 -1.99513 -0.0183194
-197.367 79.503 -92.9039 0.802 58.846 7.2896 -1.02594 6.79134 -1.4881 0.168596 0.195352 -0.402338 -2.72495 2.53215 -0.979129 4.73779 -13.4018 0.48199 -0.0 0.0 0.0 -0.0 0.0 0.0 4.51989e-14 -5.33386e-14 -4.44035e-14 20.1032 16.7548 1.78962 -18.8729 -16.5231 15.1444 0.037832 -4.39553 -0.611543 -3.88189e-10 1.37971e-09 -2.26406e-09 -6.39401e-10 2.38358e-09 -3.91953e-09 -3.88184e-10 1.37971e-09 -2.26407e-09 7.73091 5.47488 0.417314 -3.8819e-10 1.37971e-09 -2.26406e-09 2.90554 0.965183 0.102902 -3.88183e-10 1.37971e-09 -2.26406e-09 10.2786 0.731801 0.0259123 -3.88196e-10 1.37972e-09 -2.26405e-09 2.22167 -0.733487 -0.20892 4.50016e-14 -5.33554e-14 -4.47898e-14 -24.1993 12.7459 -0.00408932 18.3715 -15.9719 -15.1102 -0.201098 -9.98928 1.32847 1.9622e-09 -2.11116e-09 2.6718e-09 3.30907e-09 -3.7476e-09 4.66664e-09 1.9622e-09 -2.11116e-09 2.67181e-09 -7.73091 5.47488 -0.417314 1.9622e-09 -2.11116e-09 2.6718e-09 -2.90554 0.965183 -0.102902 1.96219e-09 -2.11116e-09 2.67179e-09 -10.2786 0.731801 -0.0259123 1.96221e-09 -2.11116e-09 2.67179e-09 -2.22167 -0.733487 0.20892 -2.03217e-16 0.0 -3.88251e-19 -4.89855 -2.80996 -1.30417 0.0260469 6.9174 0.105519 -1.18908 -4.13533 -3.63203 2.03217e-16 0.0 3.88251e-19 1.47356 -17.9613 7.97743 0.129399 26.4115 -0.416721 0.489077 -4.26129 -0.324207
-196.65 79.6504 -92.5803 0.3961 58.8004 6.9628 1.60811 13.9312 -3.11864 1.26414 0.400707 -0.690255 -5.49256 5.18455 -1.97498 9.91707 -27.556 1.13657 -0.0 0.0 0.0 -0.0 0.0 0.0 9.79526e-14 -1.19234e-13 -8.12532e-14 39.951 34.4011 4.24517 -28.6103 -30.0127 35.0725 -0.0268003 -9.13643 -1.28378 -6.95327e-10 2.88415e-09 -4.75052e-09 -1.13585e-09 4.98283e-09 -8.22387e-09 -6.95322e-10 2.88415e-09 -4.75052e-09 7.73091 5.47488 0.417314 -6.95327e-10 2.88415e-09 -4.75052e-09 2.90554 0.965183 0.102902 -6.9532e-10 2.88415e-09 -4.75052e-09 10.2786 0.731801 0.0259123 -6.95335e-10 2.88416e-09 -4.75051e-09 2.22167 -0.733487 -0.20892 9.77545e-14 -1.19276e-13 -8.16291e-14 -49.8473 26.2654 -0.03122 27.972 -28.9537 -34.6783 0.120565 -20.4684 2.86567 4.15537e-09 -4.40093e-09 5.56301e-09 7.01066e-09 -7.81226e-09 9.71566e-09 4.15537e-09 -4.40093e-09 5.56301e-09 -7.73091 5.47488 -0.417314 4.15537e-09 -4.40093e-09 5.563e-09 -2.90554 0.965183 -0.102902 4.15536e-09 -4.40093e-09 5.563e-09 -10.2786 0.731801 -0.0259123 4.15538e-09 -4.40093e-09 5.56298e-09 -2.22167 -0.733487 0.20892 -2.03217e-16 0.0 -3.88251e-19 -8.10528 -3.79194 -2.69326 0.000928715 16.4818 0.302507 -3.13439 -12.6539 -7.76319 2.03217e-16 0.0 3.88251e-19 8.71325 -26.3678 17.1616 0.423249 42.4978 -0.71454 0.420487 -6.66903 -0.652995
-195.993 79.6583 -92.2369 -0.3956 58.8514 6.4696 4.23852 20.3178 -4.54745 2.23695 0.549608 -0.908383 -7.9134 7.58755 -2.96046 15.0669 -40.1921 1.8415 -0.0 0.0 0.0 -0.0 0.0 0.0 1.54285e-13 -1.60083e-13 -1.33807e-13 55.7004 50.0108 8.01496 -29.1964 -34.4419 56.6058 -0.174426 -13.1805 -1.87874 -9.81944e-10 4.1382e-09 -6.79169e-09 -1.60278e-09 7.14912e-09 -1.17577e-08 -9.81939e-10 4.1382e-09 -6.79168e-09 7.73091 5.47488 0.417314 -9.81943e-10 4.1382e-09 -6.79169e-09 2.90554 0.965183 0.102902 -9.81936e-10 4.1382e-09 -6.79168e-09 10.2786 0.731801 0.0259123 -9.81952e-10 4.13822e-09 -6.79167e-09 2.22167 -0.733487 -0.20892 1.54086e-13 -1.60147e-13 -1.34171e-13 -72.5911 38.2378 -0.0152342 28.9342 -33.4717 -55.6735 0.966185 -29.8983 4.5287 6.06924e-09 -6.33447e-09 8.01589e-09 1.02426e-08 -1.12445e-08 1.40007e-08 6.06923e-09 -6.33448e-09 8.0159e-09 -7.73091 5.47488 -0.417314 6.06924e-09 -6.33447e-09 8.01588e-09 -2.90554 0.965183 -0.102902 6.06923e-09 -6.33448e-09 8.01588e-09 -10.2786 0.731801 -0.0259123 6.06925e-09 -6.33448e-09 8.01587e-09 -2.22167 -0.733487 0.20892 -2.03217e-16 0.0 -3.88251e-19 -10.9799 -4.55121 -3.9495 -0.0824947 24.9087 0.500271 -5.99454 -20.03 -11.8589 2.03217e-16 0.0 3.88251e-19 17.9317 -32.744 26.5988 0.941809 56.6146 -1.19692 0.339998 -8.79264 -0.944415
-195.334 79.6304 -91.9526 -0.935 58.984 6.402 6.00558 24.8819 -5.20546 2.89853 0.557446 -0.951989 -9.62851 9.37331 -3.90157 19.3485 -49.0506 2.22201 -0.0 0.0 0.0 -0.0 0.0 0.0 2.19565e-13 -1.38318e-13 -2.25621e-13 64.247 60.704 13.1844 -28.2118 -32.0761 70.5761 -0.303593 -15.4892 -2.23206 -1.21726e-09 4.76629e-09 -7.71963e-09 -1.99593e-09 8.23305e-09 -1.33653e-08 -1.21725e-09 4.76629e-09 -7.71963e-09 7.73091 5.47488 0.417314 -1.21726e-09 4.76629e-09 -7.71964e-09 2.90554 0.965183 0.102902 -1.21725e-09 4.76629e-09 -7.71963e-09 10.2786 0.731801 0.0259123 -1.21727e-09 4.76631e-09 -7.71962e-09 2.22167 -0.733487 -0.20892 2.19366e-13 -1.38391e-13 -2.25968e-13 -88.1456 46.3422 0.150885 28.1465 -31.5703 -69.7623 2.00486 -36.7666 6.02776 7.28485e-09 -7.37746e-09 9.37297e-09 1.23004e-08 -1.30959e-08 1.6376e-08 7.28485e-09 -7.37747e-09 9.37298e-09 -7.73091 5.47488 -0.417314 7.28485e-09 -7.37746e-09 9.37296e-09 -2.90554 0.965183 -0.102902 7.28485e-09 -7.37746e-09 9.37296e-09 -10.2786 0.731801 -0.0259123 7.28486e-09 -7.37747e-09 9.37295e-09 -2.22167 -0.733487 0.20892 -2.03217e-16 0.0 -3.88251e-19 -12.9264 -4.76186 -4.8658 -0.178366 30.4926 0.653628 -8.74385 -24.9131 -15.1483 2.03217e-16 0.0 3.88251e-19 26.1761 -36.3934 33.7182 1.59589 65.8113 -1.79593 0.283549 -10.2069 -1.1347
